<mxfile host="65bd71144e">
    <diagram id="MdrX_lar1-w-kcnfK0Eb" name="Page-1">
        <mxGraphModel dx="1454" dy="659" grid="1" gridSize="10" guides="1" tooltips="1" connect="1" arrows="1" fold="1" page="1" pageScale="1" pageWidth="3300" pageHeight="4681" math="0" shadow="0">
            <root>
                <mxCell id="0"/>
                <mxCell id="1" parent="0"/>
                <mxCell id="82" value="&lt;h1 style=&quot;margin-top: 0px;&quot;&gt;Legende:&lt;/h1&gt;" style="text;html=1;whiteSpace=wrap;overflow=hidden;rounded=0;" parent="1" vertex="1">
                    <mxGeometry x="750" y="570" width="180" height="120" as="geometry"/>
                </mxCell>
                <mxCell id="73" value="" style="rounded=0;whiteSpace=wrap;html=1;fillColor=none;" parent="1" vertex="1">
                    <mxGeometry x="110" y="250" width="560" height="350" as="geometry"/>
                </mxCell>
                <mxCell id="76" value="" style="rounded=0;whiteSpace=wrap;html=1;fillColor=none;" parent="1" vertex="1">
                    <mxGeometry x="810" y="20" width="540" height="360" as="geometry"/>
                </mxCell>
                <mxCell id="2" value="&lt;font face=&quot;Comic Sans MS&quot; style=&quot;font-size: 29px;&quot;&gt;&lt;b&gt;&lt;u&gt;Unser Informatik-Projekt&lt;/u&gt;&lt;/b&gt;&lt;/font&gt;" style="text;html=1;align=center;verticalAlign=middle;whiteSpace=wrap;rounded=0;fontFamily=Helvetica;fontSize=11;labelBackgroundColor=default;fillColor=none;glass=0;arcSize=0;shadow=0;" parent="1" vertex="1">
                    <mxGeometry x="220" y="10" width="490" height="70" as="geometry"/>
                </mxCell>
                <mxCell id="35" style="edgeStyle=none;html=1;entryX=0.5;entryY=0;entryDx=0;entryDy=0;" parent="1" source="33" target="34" edge="1">
                    <mxGeometry relative="1" as="geometry"/>
                </mxCell>
                <mxCell id="57" value="" style="edgeStyle=none;html=1;" parent="1" source="33" target="56" edge="1">
                    <mxGeometry relative="1" as="geometry"/>
                </mxCell>
                <mxCell id="33" value="Machine-Learning&lt;div&gt;TicTacToe&lt;/div&gt;&lt;div&gt;Zuständigkeit: Alle&lt;/div&gt;" style="whiteSpace=wrap;html=1;align=center;strokeColor=light-dark(#ff0000, #ededed);" parent="1" vertex="1">
                    <mxGeometry x="380" y="120" width="100" height="50" as="geometry"/>
                </mxCell>
                <mxCell id="36" style="edgeStyle=none;html=1;exitX=1;exitY=0.5;exitDx=0;exitDy=0;" parent="1" source="34" target="37" edge="1">
                    <mxGeometry relative="1" as="geometry">
                        <mxPoint x="365" y="340" as="targetPoint"/>
                    </mxGeometry>
                </mxCell>
                <mxCell id="44" value="" style="edgeStyle=none;html=1;" parent="1" source="34" target="43" edge="1">
                    <mxGeometry relative="1" as="geometry"/>
                </mxCell>
                <mxCell id="34" value="Monte-Carlo-Tree-Search&lt;div&gt;Zuständigkeit:&lt;/div&gt;" style="whiteSpace=wrap;html=1;align=center;strokeColor=#FF0000;" parent="1" vertex="1">
                    <mxGeometry x="170" y="305" width="100" height="60" as="geometry"/>
                </mxCell>
                <mxCell id="40" value="" style="edgeStyle=none;html=1;" parent="1" source="37" target="39" edge="1">
                    <mxGeometry relative="1" as="geometry"/>
                </mxCell>
                <mxCell id="37" value="Suchbaum-Struktur&lt;div&gt;Zuständigkeit:&amp;nbsp;&lt;/div&gt;" style="whiteSpace=wrap;html=1;align=center;strokeColor=#FF0000;" parent="1" vertex="1">
                    <mxGeometry x="345" y="310" width="100" height="50" as="geometry"/>
                </mxCell>
                <mxCell id="39" value="Passender Datentyp&lt;div&gt;Zuständigkeit: Felix&lt;/div&gt;" style="whiteSpace=wrap;html=1;align=center;strokeColor=#FFFF33;" parent="1" vertex="1">
                    <mxGeometry x="525" y="300" width="115" height="70" as="geometry"/>
                </mxCell>
                <mxCell id="48" value="" style="edgeStyle=none;html=1;" parent="1" source="43" target="47" edge="1">
                    <mxGeometry relative="1" as="geometry"/>
                </mxCell>
                <mxCell id="50" value="" style="edgeStyle=none;html=1;" parent="1" source="43" target="49" edge="1">
                    <mxGeometry relative="1" as="geometry"/>
                </mxCell>
                <mxCell id="43" value="Dynamische Erweiterung&lt;div&gt;Zuständigkeit:&lt;/div&gt;" style="whiteSpace=wrap;html=1;align=center;strokeColor=#FF0000;" parent="1" vertex="1">
                    <mxGeometry x="255" y="410" width="100" height="50" as="geometry"/>
                </mxCell>
                <mxCell id="45" style="edgeStyle=none;html=1;entryX=0.75;entryY=0;entryDx=0;entryDy=0;" parent="1" source="37" target="43" edge="1">
                    <mxGeometry relative="1" as="geometry">
                        <mxPoint x="305" y="420" as="targetPoint"/>
                    </mxGeometry>
                </mxCell>
                <mxCell id="47" value="Evaluierung&lt;div&gt;Zuständigkeit:&lt;/div&gt;" style="whiteSpace=wrap;html=1;align=center;strokeColor=#FF0000;" parent="1" vertex="1">
                    <mxGeometry x="345" y="530" width="100" height="40" as="geometry"/>
                </mxCell>
                <mxCell id="51" style="edgeStyle=none;html=1;exitX=0.25;exitY=1;exitDx=0;exitDy=0;entryX=0.75;entryY=0;entryDx=0;entryDy=0;" parent="1" source="49" target="47" edge="1">
                    <mxGeometry relative="1" as="geometry"/>
                </mxCell>
                <mxCell id="49" value="Zufalls-züge&lt;div&gt;Zuständigkeit:&lt;/div&gt;" style="whiteSpace=wrap;html=1;align=center;strokeColor=#FF0000;" parent="1" vertex="1">
                    <mxGeometry x="435" y="420" width="100" height="40" as="geometry"/>
                </mxCell>
                <mxCell id="53" value="" style="curved=1;endArrow=classic;html=1;exitX=0;exitY=0.5;exitDx=0;exitDy=0;entryX=0;entryY=0.5;entryDx=0;entryDy=0;" parent="1" source="47" target="34" edge="1">
                    <mxGeometry width="50" height="50" relative="1" as="geometry">
                        <mxPoint x="365" y="460" as="sourcePoint"/>
                        <mxPoint x="415" y="410" as="targetPoint"/>
                        <Array as="points">
                            <mxPoint x="170" y="570"/>
                            <mxPoint x="110" y="390"/>
                        </Array>
                    </mxGeometry>
                </mxCell>
                <mxCell id="54" value="Back-propagation" style="text;html=1;align=center;verticalAlign=middle;whiteSpace=wrap;rounded=0;fontFamily=Helvetica;fontSize=11;fontColor=default;labelBackgroundColor=default;" parent="1" vertex="1">
                    <mxGeometry x="180" y="520" width="60" height="30" as="geometry"/>
                </mxCell>
                <mxCell id="59" value="" style="edgeStyle=none;html=1;" parent="1" source="56" target="58" edge="1">
                    <mxGeometry relative="1" as="geometry"/>
                </mxCell>
                <mxCell id="63" value="" style="edgeStyle=none;html=1;" parent="1" source="56" target="62" edge="1">
                    <mxGeometry relative="1" as="geometry"/>
                </mxCell>
                <mxCell id="56" value="Spielen gegen den Computer&lt;div&gt;Zuständigkeit:&lt;/div&gt;" style="whiteSpace=wrap;html=1;align=center;strokeColor=#FF0000;" parent="1" vertex="1">
                    <mxGeometry x="860" y="110" width="100" height="50" as="geometry"/>
                </mxCell>
                <mxCell id="58" value="Nutzer-Eingabe und Verarbeitung&lt;div&gt;Zuständigkeit:&amp;nbsp;&lt;/div&gt;" style="whiteSpace=wrap;html=1;align=center;strokeColor=#FF0000;" parent="1" vertex="1">
                    <mxGeometry x="1020" y="40" width="100" height="40" as="geometry"/>
                </mxCell>
                <mxCell id="60" value="" style="endArrow=classicThin;dashed=1;html=1;exitX=1;exitY=0.25;exitDx=0;exitDy=0;endFill=1;startArrow=classicThin;startFill=1;entryX=0;entryY=0.5;entryDx=0;entryDy=0;" parent="1" source="39" target="58" edge="1">
                    <mxGeometry width="50" height="50" relative="1" as="geometry">
                        <mxPoint x="745" y="240" as="sourcePoint"/>
                        <mxPoint x="770" y="110" as="targetPoint"/>
                        <Array as="points">
                            <mxPoint x="770" y="60"/>
                        </Array>
                    </mxGeometry>
                </mxCell>
                <mxCell id="65" value="" style="edgeStyle=none;html=1;" parent="1" source="62" target="64" edge="1">
                    <mxGeometry relative="1" as="geometry"/>
                </mxCell>
                <mxCell id="67" value="" style="edgeStyle=none;html=1;" parent="1" source="62" target="66" edge="1">
                    <mxGeometry relative="1" as="geometry"/>
                </mxCell>
                <mxCell id="68" style="edgeStyle=none;html=1;exitX=1;exitY=1;exitDx=0;exitDy=0;entryX=0;entryY=0;entryDx=0;entryDy=0;dashed=1;dashPattern=12 12;" parent="1" source="62" target="69" edge="1">
                    <mxGeometry relative="1" as="geometry">
                        <mxPoint x="1190" y="260" as="targetPoint"/>
                    </mxGeometry>
                </mxCell>
                <mxCell id="62" value="Graphische Ausgabe&lt;div&gt;Zuständigkeit:&lt;/div&gt;" style="whiteSpace=wrap;html=1;align=center;strokeColor=#FF0000;" parent="1" vertex="1">
                    <mxGeometry x="1020" y="140" width="100" height="50" as="geometry"/>
                </mxCell>
                <mxCell id="64" value="Brett&lt;div&gt;Zuständigkeit:&lt;/div&gt;" style="whiteSpace=wrap;html=1;align=center;strokeColor=#FF0000;" parent="1" vertex="1">
                    <mxGeometry x="1200" y="150" width="100" height="40" as="geometry"/>
                </mxCell>
                <mxCell id="79" value="" style="edgeStyle=none;html=1;dashed=1;dashPattern=12 12;" parent="1" source="66" target="78" edge="1">
                    <mxGeometry relative="1" as="geometry"/>
                </mxCell>
                <mxCell id="66" value="Feedback (illegaler Zug, wer hat gewonnen etc.)&lt;div&gt;Zuständigkeit:&lt;/div&gt;" style="whiteSpace=wrap;html=1;align=center;strokeColor=#FF0000;" parent="1" vertex="1">
                    <mxGeometry x="1015" y="270" width="110" height="60" as="geometry"/>
                </mxCell>
                <mxCell id="69" value="Computer-Zuversichtlichkeit?" style="whiteSpace=wrap;html=1;align=center;dashed=1;dashPattern=12 12;" parent="1" vertex="1">
                    <mxGeometry x="1190" y="260" width="100" height="40" as="geometry"/>
                </mxCell>
                <mxCell id="72" value="" style="endArrow=classicThin;dashed=1;html=1;exitX=1;exitY=0.5;exitDx=0;exitDy=0;entryX=0;entryY=0.5;entryDx=0;entryDy=0;endFill=1;" parent="1" source="47" target="66" edge="1">
                    <mxGeometry width="50" height="50" relative="1" as="geometry">
                        <mxPoint x="680" y="470" as="sourcePoint"/>
                        <mxPoint x="730" y="420" as="targetPoint"/>
                    </mxGeometry>
                </mxCell>
                <mxCell id="75" value="&lt;h1 style=&quot;margin-top: 0px;&quot;&gt;Backend&lt;/h1&gt;&lt;div&gt;Das ist die ganze Technik im Hintergrund, die den TicTacToe-&quot;Computer&quot; Stark macht&lt;/div&gt;" style="text;html=1;whiteSpace=wrap;overflow=hidden;rounded=0;" parent="1" vertex="1">
                    <mxGeometry x="75" y="140" width="180" height="120" as="geometry"/>
                </mxCell>
                <mxCell id="77" value="&lt;h1 style=&quot;margin-top: 0px;&quot;&gt;Frontend&lt;/h1&gt;&lt;div&gt;Das ist alles was der Benutzer sieht und womit er/sie/es interagiert&lt;/div&gt;" style="text;html=1;whiteSpace=wrap;overflow=hidden;rounded=0;" parent="1" vertex="1">
                    <mxGeometry x="1180" y="390" width="180" height="120" as="geometry"/>
                </mxCell>
                <mxCell id="80" style="edgeStyle=none;html=1;entryX=1;entryY=0.5;entryDx=0;entryDy=0;dashed=1;dashPattern=12 12;" parent="1" source="78" target="47" edge="1">
                    <mxGeometry relative="1" as="geometry">
                        <mxPoint x="800" y="540" as="targetPoint"/>
                    </mxGeometry>
                </mxCell>
                <mxCell id="78" value="Möglicherweise weiteres Lernen des Computer durch den Nutzer?" style="whiteSpace=wrap;html=1;align=center;dashed=1;dashPattern=12 12;" parent="1" vertex="1">
                    <mxGeometry x="890" y="490" width="110" height="60" as="geometry"/>
                </mxCell>
                <mxCell id="81" value="Noch offen" style="rounded=0;whiteSpace=wrap;html=1;strokeColor=#FF0000;" parent="1" vertex="1">
                    <mxGeometry x="750" y="620" width="120" height="30" as="geometry"/>
                </mxCell>
                <mxCell id="83" value="In Arbeit" style="rounded=0;whiteSpace=wrap;html=1;strokeColor=#FFFF33;" parent="1" vertex="1">
                    <mxGeometry x="750" y="650" width="120" height="30" as="geometry"/>
                </mxCell>
                <mxCell id="84" value="Abgeschlossen" style="rounded=0;whiteSpace=wrap;html=1;strokeColor=#33FF33;" parent="1" vertex="1">
                    <mxGeometry x="750" y="710" width="120" height="30" as="geometry"/>
                </mxCell>
                <mxCell id="85" value="Bug-Testing erfolgreich" style="rounded=0;whiteSpace=wrap;html=1;strokeColor=#007FFF;" parent="1" vertex="1">
                    <mxGeometry x="750" y="680" width="120" height="30" as="geometry"/>
                </mxCell>
                <mxCell id="86" value="SEHR Optional" style="rounded=0;whiteSpace=wrap;html=1;strokeColor=#000000;dashed=1;dashPattern=12 12;" parent="1" vertex="1">
                    <mxGeometry x="870" y="620" width="120" height="30" as="geometry"/>
                </mxCell>
            </root>
        </mxGraphModel>
    </diagram>
</mxfile>